<svg xmlns="http://www.w3.org/2000/svg" viewBox="0 0 500 320">
    <title>
        Dharmafly logo ~ http://dharmafly.com
    </title>
    <g fill="#8BC540">
        <path d="m11.571 295.479l8.395 23.176h-3.518c-.575-1.945-1.568-4.881-2.32-7.066h-8.325l-2.595 7.066h-3.208c2.938-6.965 7.44-18.738 8.841-23.176h2.73zm1.706 13.484c-.887-2.73-1.841-5.395-2.902-7.953-.136-.275-.204-.445-.305-.445-.102 0-.241.135-.31.445-1.022 2.594-2.116 5.494-3.004 7.953h6.521z"/>
        <path d="m29.861 308.789c-1.027 0-2.082-.135-3.144-.373v10.238h-3.069v-23.005c2.421 0 3.753-.338 6.073-.338 4.847 0 7.885 2.389 7.885 6.721 0 4.302-3.343 6.757-7.745 6.757zm-3.144-2.9c.854.207 1.812.309 2.596.309 2.868 0 4.879-1.332 4.879-4.062 0-2.729-1.875-4.16-4.571-4.16-2.594 0-2.699.475-2.733 1.021-.136 2.216-.171 4.915-.171 6.892z"/>
        <path d="m48.185 308.789c-1.027 0-2.084-.135-3.144-.373v10.238h-3.07v-23.005c2.422 0 3.754-.338 6.074-.338 4.847 0 7.885 2.389 7.885 6.721 0 4.302-3.343 6.757-7.745 6.757zm-3.144-2.9c.854.207 1.812.309 2.596.309 2.868 0 4.879-1.332 4.879-4.062 0-2.729-1.876-4.16-4.574-4.16-2.591 0-2.696.475-2.73 1.021-.137 2.216-.171 4.915-.171 6.892z"/>
        <path d="m66.434 295.106c1.229 0 2.425.068 3.685.34v3.105c-1.294-.441-2.66-.646-3.889-.646-2.39 0-4.132 1.023-4.132 3.242 0 4.199 9.453 4.779 9.453 11.26 0 4.508-3.65 6.727-8.426 6.727-1.47 0-2.903-.139-4.37-.443v-2.902c1.467.344 2.868.514 4.166.514 3.035 0 5.221-1.129 5.221-3.584 0-4.951-9.421-4.951-9.421-11.197 0-3.926 3.377-6.416 7.713-6.416z"/>
        <path d="m87.075 318.655v-23.006h11.945v2.766c-2.045-.135-4.775-.17-8.327-.17-.305 0-.479.205-.479.549-.032 1.363-.066 3.822-.066 6.586h7.885v2.695h-7.885v10.58h-3.073z"/>
        <path d="m122.772 307.084c0 8.223-4.775 12.084-10.407 12.084-5.667 0-10.443-3.756-10.443-11.947 0-8.225 4.776-12.115 10.443-12.115 5.631 0 10.407 3.754 10.407 11.978zm-3.343 0c0-6.451-2.9-9.18-7.064-9.18-4.2 0-7.101 2.898-7.101 9.316 0 6.449 2.9 9.215 7.101 9.215 4.164.001 7.064-2.935 7.064-9.351z"/>
        <path d="m144.777 318.655h-3.545l-5.734-8.258c-.784-1.129-1.229-1.398-2.014-1.398h-1.98v9.656h-3.072v-23.006c2.698 0 3.312-.338 5.938-.338 4.606 0 7.781 2.049 7.781 6.451 0 3.004-1.91 5.221-4.677 6.141l7.303 10.752zm-11.022-12.356c3.209 0 5.085-1.363 5.085-4.367 0-2.766-2.15-3.992-4.707-3.992-2.288 0-2.46.373-2.46.818-.136 2.252-.17 5.664-.17 7.541h2.252z"/>
        <path d="m174.429 298.928c-1.504-.615-3.072-.953-4.641-.953-4.847 0-8.431 2.42-8.431 9.178 0 6.828 3.717 9.148 8.431 9.148 1.805 0 3.205-.275 4.641-.959v2.867c-1.504.58-3.004.959-4.709.959-6.282 0-11.709-3.244-11.709-11.812 0-8.562 5.529-12.25 11.777-12.25 1.5 0 3.309.238 4.641.684v3.138z"/>
        <path d="m182.339 318.655h-3.072v-23.006h3.21c-.068 2.117-.138 4.746-.138 9.354h10.549v-9.354h3.206c-.034 2.291-.138 5.564-.138 10.48v12.525h-3.068v-10.854h-10.549v10.855z"/>
        <path d="m211.314 295.479l8.392 23.176h-3.515c-.576-1.945-1.568-4.881-2.32-7.066h-8.328l-2.595 7.066h-3.206c2.936-6.965 7.438-18.738 8.839-23.176h2.733zm1.705 13.484c-.889-2.73-1.843-5.395-2.9-7.953-.137-.275-.206-.445-.309-.445-.1 0-.241.135-.31.445-1.022 2.594-2.114 5.494-2.999 7.953h6.518z"/>
        <path d="m226.425 318.655h-3.037v-23.006h3.583l9.969 16.076c.104.174.306.479.374.479.104 0 .138-.205.138-.441v-16.114h3.175c-.034 1.643-.142 5.43-.142 10.311v12.695h-3.137c-2.698-4.916-7.781-13.551-10.923-18.021v18.021z"/>
        <path d="m257.445 319.168c-5.869 0-11.365-3.074-11.365-11.639 0-8.328 5.358-12.389 11.877-12.389 1.671 0 3.411.238 4.777.648v3.174c-1.568-.65-3.141-.889-4.777-.889-4.744 0-8.534 2.355-8.534 9.281 0 6.793 3.79 8.979 8.022 8.979 1.839 0 2.424-.684 2.424-1.297v-7.715h3.209c-.103 1.98-.142 6.965-.142 10.854-1.671.614-3.511.993-5.491.993z"/>
        <path d="m268.806 318.655v-23.006h12.59v2.766c-2.08-.17-4.74-.17-8.942-.17-.305 0-.477.17-.511.582-.035 1.26-.069 3.619-.069 6.311h8.465v2.699h-8.465v7.404c0 .41.241.717.649.717 4.301 0 7.103-.033 9.147-.102v2.799h-12.864z"/>
    </g>
    <path fill="#1D9649" d="m439.679 212.721h14.356c1.676 11.523 7.833 28.012 12.817 41.561.584 1.508 1.844 4.863 2.514 4.863.675 0 1.822-3.355 2.535-5.168l14.463-41.256h12.41c-9.453 22.17-19.774 50.467-25.765 69.293 0 0-3.785 11.285-5.899 18.33-2.131 7.088-2.806 11.611-2.806 11.611h-13.892c2.935-8.193 6.836-18.955 12.275-35.391l-23.008-63.843zm-16.701-34.574v97.184h11v-49.795c0-19.791.851-29.256.996-46.41-4.258-.001-9.251-.598-11.996-.979zm-27.475 25.668c0-10.611 5.19-15.6 17.596-15.6 1.796 0 4.361.143 4.361.49v-10.721c0-.062-1.887-.111-3.038-.111-19.933 0-29.953 8.088-29.953 27.057v7.154h-8.207v10.998h8.207v52.248h11.034v-52.248h19.229v-10.998h-19.229v-8.269zm-392.711-20.477c9.451 0 17.828-.986 25.309-.986 26.435 0 46.465 13.494 46.465 48.006 0 35.193-21.307 48.68-46.886 48.68-8.92 0-14.893-1.963-24.888-1.963v-93.737zm25.036 84.838c20.988 0 33.236-10.438 33.236-37.137 0-26.279-12.792-37.707-33.093-37.707-9.344 0-12.4 1.256-12.4 3.912 0 5.973-.258 15.566-.258 28.236v38.82c.001 2.761 7.632 3.876 12.515 3.876zm146.957-33.096v-3.336c0-6.971-4.331-10.727-12.422-10.727-6.351 0-12.638 1.406-18.881 4.32v-10.998c6.381-2.373 12.659-3.609 20.011-3.609 14.326 0 23.087 5.85 23.087 20.592 0 11.129-.421 21.137-.421 31.574 0 5.549.271 10.17.584 13.777-10.179 0-16.572 1.82-24.922 1.82-15.15 0-22.937-7.826-22.937-19.619.001-12.815 10.571-23.237 35.901-23.794zm0 9.172c-16.151.285-23.108 4.734-23.108 13.787 0 5.842 4.172 10.406 11.546 10.406 7.231 0 10.282-1.779 10.832-4.713.58-2.644.73-10.007.73-19.48zm31.617 32.822h-11.799v-62.585c11.799 0 18.648-4.465 28.664-4.465 2.093 0 4.314.15 6.527.57v12.252c-2.926-1.115-6.664-1.693-10.012-1.693-6.952 0-12.942 2.658-13.088 8.094-.107 11.962-.292 30.74-.292 47.827zm111.586 0h-11.812v-41.721c0-10.293-4.043-14.045-11.967-14.045-5.848 0-12.499 2.643-12.499 6.543.271 1.395.511 3.744.511 6.113v43.109h-11.808v-41.721c0-10.58-4.288-14.045-11.288-14.045-6.08 0-12.628 2.229-12.628 7.65v48.115h-11.838v-62.857c12.8 0 16.985-3.35 26.559-3.35 8.529 0 12.53 2.668 15.757 5.713 5.006-3.35 11.104-5.713 19.877-5.713 12.509 0 21.137 5.836 21.137 22.385v43.824h-.001zm42.014-41.994v-3.336c0-6.971-4.292-10.727-12.357-10.727-6.407 0-12.672 1.406-18.894 4.32v-10.998c6.368-2.373 12.637-3.609 20.002-3.609 14.33 0 23.092 5.85 23.092 20.592 0 11.129-.438 21.137-.438 31.574 0 5.549.305 10.17.562 13.777-10.136 0-16.53 1.82-24.896 1.82-15.177 0-22.95-7.826-22.95-19.619 0-12.815 10.579-23.237 35.879-23.794zm0 9.172c-16.108.285-23.078 4.734-23.078 13.787 0 5.842 4.181 10.406 11.537 10.406 7.249 0 10.291-1.779 10.837-4.713.584-2.644.704-10.007.704-19.48zm-265.803-70.236c-4.254 0-7.901-.51-13.086-.877l.145.15s.754 5.387.754 14.375v90.396h11.013v-49.516c0-4.191 5.552-6.957 13.322-6.957 10.151 0 14.146 4.857 14.146 16.402v40.07h10.993v-44.809c0-16.549-10.136-22.25-22.094-22.25-6.85 0-12.257 1.959-15.877 3.906 0-13.35.414-27.311.562-40.805"/>
    <path fill="#8BC540" d="m194.47 1.739c16.93 0 31.864-1.739 45.312-1.739 47.296 0 83.103 24.144 82.985 85.883-.121 62.983-38.255 87.131-84.063 87.131-14.918 0-25.248-3.061-41.222-3.445-1.085-.027-.803-1.658-1.938-1.658l-1.383-4.275.309-161.897z"/>
    <path fill="#fff" d="m290.256 88.727c-1.859-5.153-7.569-7.831-12.721-5.972-5.151 1.864-7.836 7.573-5.975 12.727.468 1.296 1.18 2.435 2.063 3.384-6.04 9.016-14.898 15.957-25.176 19.67l-27.994 10.436c-7.735 2.793-14.69 7.174-20.476 12.853.436-2.989 1.017-5.97 1.747-8.937 2.272-4.314 5.743-7.829 10.051-10.168l11.515-6.258c5.604-3.045 9.939-7.667 12.595-13.409 1.114.089 2.265-.131 3.317-.703 2.885-1.569 3.959-5.197 2.39-8.091-1.573-2.888-5.201-3.958-8.088-2.388-2.882 1.569-3.96 5.197-2.391 8.087.19.351.412.674.659.971-2.229 4.917-5.909 8.875-10.689 11.473l-11.514 6.257c-1.509.819-2.927 1.763-4.252 2.813 8.302-21.474 24.31-39.288 45.094-49.802l2.888-1.517c12.103-6.122 15.322-9.823 20.114-15.702 2.591.619 5.422.207 7.813-1.378 4.564-3.036 5.811-9.216 2.778-13.78-3.031-4.564-9.214-5.812-13.778-2.776-4.563 3.026-5.809 9.214-2.779 13.778.328.493.694.945 1.09 1.359-4.275 5.211-7.144 8.193-17.761 13.561l-2.889 1.517c-12.942 6.55-24.032 15.585-32.964 26.856-8.637 10.898-14.788 23.271-18.284 36.776-3.521 13.61-4.123 27.506-1.784 41.327l.166.94c-1.139.926-1.867 2.338-1.867 3.92 0 2.791 2.263 5.055 5.053 5.055 2.791 0 5.054-2.264 5.054-5.055 0-1.941-1.097-3.625-2.702-4.471l-.237-1.336-.153-.946c2.741-3.353 6.404-5.749 10.578-6.931l18.09-4.957c4.857-1.369 9.136-4.016 12.485-7.703 1.832.617 3.861.71 5.859.145 5.271-1.486 8.356-6.982 6.865-12.255-1.486-5.279-6.988-8.356-12.263-6.872-5.276 1.487-8.354 6.992-6.866 12.267.372 1.319.996 2.501 1.805 3.509-2.572 2.645-5.774 4.553-9.371 5.566l-18.093 4.959c-3.693 1.043-7.06 2.834-9.936 5.26-.32-3.873-.396-7.744-.229-11.609 5.963-7.78 13.988-13.648 23.258-16.992l27.996-10.436c11.472-4.149 21.349-11.928 28.044-22.033 1.883.496 3.93.448 5.896-.261 5.155-1.861 7.833-7.571 5.969-12.728zm-17.34-48.178c2.338-1.552 5.492-.919 7.048 1.425 1.561 2.347.922 5.502-1.418 7.054-2.342 1.564-5.503.926-7.059-1.417-1.553-2.345-.92-5.503 1.429-7.062zm-29.811 95.339c2.703-.761 5.514.814 6.28 3.52.766 2.704-.813 5.521-3.52 6.283-2.701.765-5.523-.812-6.283-3.519-.763-2.705.816-5.515 3.523-6.284zm39.539-38.996c-2.646.956-5.567-.415-6.521-3.055-.953-2.644.409-5.566 3.06-6.519 2.643-.956 5.561.414 6.515 3.059.953 2.643-.412 5.56-3.054 6.515z"/>
    <g fill="#8BC540">
        <path d="m11.571 295.479l8.395 23.176h-3.518c-.575-1.945-1.568-4.881-2.32-7.066h-8.325l-2.595 7.066h-3.208c2.938-6.965 7.44-18.738 8.841-23.176h2.73zm1.706 13.484c-.887-2.73-1.841-5.395-2.902-7.953-.136-.275-.204-.445-.305-.445-.102 0-.241.135-.31.445-1.022 2.594-2.116 5.494-3.004 7.953h6.521z"/>
        <path d="m29.861 308.789c-1.027 0-2.082-.135-3.144-.373v10.238h-3.069v-23.005c2.421 0 3.753-.338 6.073-.338 4.847 0 7.885 2.389 7.885 6.721 0 4.302-3.343 6.757-7.745 6.757zm-3.144-2.9c.854.207 1.812.309 2.596.309 2.868 0 4.879-1.332 4.879-4.062 0-2.729-1.875-4.16-4.571-4.16-2.594 0-2.699.475-2.733 1.021-.136 2.216-.171 4.915-.171 6.892z"/>
        <path d="m48.185 308.789c-1.027 0-2.084-.135-3.144-.373v10.238h-3.07v-23.005c2.422 0 3.754-.338 6.074-.338 4.847 0 7.885 2.389 7.885 6.721 0 4.302-3.343 6.757-7.745 6.757zm-3.144-2.9c.854.207 1.812.309 2.596.309 2.868 0 4.879-1.332 4.879-4.062 0-2.729-1.876-4.16-4.574-4.16-2.591 0-2.696.475-2.73 1.021-.137 2.216-.171 4.915-.171 6.892z"/>
        <path d="m66.434 295.106c1.229 0 2.425.068 3.685.34v3.105c-1.294-.441-2.66-.646-3.889-.646-2.39 0-4.132 1.023-4.132 3.242 0 4.199 9.453 4.779 9.453 11.26 0 4.508-3.65 6.727-8.426 6.727-1.47 0-2.903-.139-4.37-.443v-2.902c1.467.344 2.868.514 4.166.514 3.035 0 5.221-1.129 5.221-3.584 0-4.951-9.421-4.951-9.421-11.197 0-3.926 3.377-6.416 7.713-6.416z"/>
        <path d="m87.075 318.655v-23.006h11.945v2.766c-2.045-.135-4.775-.17-8.327-.17-.305 0-.479.205-.479.549-.032 1.363-.066 3.822-.066 6.586h7.885v2.695h-7.885v10.58h-3.073z"/>
        <path d="m122.772 307.084c0 8.223-4.775 12.084-10.407 12.084-5.667 0-10.443-3.756-10.443-11.947 0-8.225 4.776-12.115 10.443-12.115 5.631 0 10.407 3.754 10.407 11.978zm-3.343 0c0-6.451-2.9-9.18-7.064-9.18-4.2 0-7.101 2.898-7.101 9.316 0 6.449 2.9 9.215 7.101 9.215 4.164.001 7.064-2.935 7.064-9.351z"/>
        <path d="m144.777 318.655h-3.545l-5.734-8.258c-.784-1.129-1.229-1.398-2.014-1.398h-1.98v9.656h-3.072v-23.006c2.698 0 3.312-.338 5.938-.338 4.606 0 7.781 2.049 7.781 6.451 0 3.004-1.91 5.221-4.677 6.141l7.303 10.752zm-11.022-12.356c3.209 0 5.085-1.363 5.085-4.367 0-2.766-2.15-3.992-4.707-3.992-2.288 0-2.46.373-2.46.818-.136 2.252-.17 5.664-.17 7.541h2.252z"/>
        <path d="m174.429 298.928c-1.504-.615-3.072-.953-4.641-.953-4.847 0-8.431 2.42-8.431 9.178 0 6.828 3.717 9.148 8.431 9.148 1.805 0 3.205-.275 4.641-.959v2.867c-1.504.58-3.004.959-4.709.959-6.282 0-11.709-3.244-11.709-11.812 0-8.562 5.529-12.25 11.777-12.25 1.5 0 3.309.238 4.641.684v3.138z"/>
        <path d="m182.339 318.655h-3.072v-23.006h3.21c-.068 2.117-.138 4.746-.138 9.354h10.549v-9.354h3.206c-.034 2.291-.138 5.564-.138 10.48v12.525h-3.068v-10.854h-10.549v10.855z"/>
        <path d="m211.314 295.479l8.392 23.176h-3.515c-.576-1.945-1.568-4.881-2.32-7.066h-8.328l-2.595 7.066h-3.206c2.936-6.965 7.438-18.738 8.839-23.176h2.733zm1.705 13.484c-.889-2.73-1.843-5.395-2.9-7.953-.137-.275-.206-.445-.309-.445-.1 0-.241.135-.31.445-1.022 2.594-2.114 5.494-2.999 7.953h6.518z"/>
        <path d="m226.425 318.655h-3.037v-23.006h3.583l9.969 16.076c.104.174.306.479.374.479.104 0 .138-.205.138-.441v-16.114h3.175c-.034 1.643-.142 5.43-.142 10.311v12.695h-3.137c-2.698-4.916-7.781-13.551-10.923-18.021v18.021z"/>
        <path d="m257.445 319.168c-5.869 0-11.365-3.074-11.365-11.639 0-8.328 5.358-12.389 11.877-12.389 1.671 0 3.411.238 4.777.648v3.174c-1.568-.65-3.141-.889-4.777-.889-4.744 0-8.534 2.355-8.534 9.281 0 6.793 3.79 8.979 8.022 8.979 1.839 0 2.424-.684 2.424-1.297v-7.715h3.209c-.103 1.98-.142 6.965-.142 10.854-1.671.614-3.511.993-5.491.993z"/>
        <path d="m268.806 318.655v-23.006h12.59v2.766c-2.08-.17-4.74-.17-8.942-.17-.305 0-.477.17-.511.582-.035 1.26-.069 3.619-.069 6.311h8.465v2.699h-8.465v7.404c0 .41.241.717.649.717 4.301 0 7.103-.033 9.147-.102v2.799h-12.864z"/>
    </g>
    <path fill="#1D9649" d="m439.679 212.721h14.356c1.676 11.523 7.833 28.012 12.817 41.561.584 1.508 1.844 4.863 2.514 4.863.675 0 1.822-3.355 2.535-5.168l14.463-41.256h12.41c-9.453 22.17-19.774 50.467-25.765 69.293 0 0-3.785 11.285-5.899 18.33-2.131 7.088-2.806 11.611-2.806 11.611h-13.892c2.935-8.193 6.836-18.955 12.275-35.391l-23.008-63.843zm-16.701-34.574v97.184h11v-49.795c0-19.791.851-29.256.996-46.41-4.258-.001-9.251-.598-11.996-.979zm-27.475 25.668c0-10.611 5.19-15.6 17.596-15.6 1.796 0 4.361.143 4.361.49v-10.721c0-.062-1.887-.111-3.038-.111-19.933 0-29.953 8.088-29.953 27.057v7.154h-8.207v10.998h8.207v52.248h11.034v-52.248h19.229v-10.998h-19.229v-8.269zm-392.711-20.477c9.451 0 17.828-.986 25.309-.986 26.435 0 46.465 13.494 46.465 48.006 0 35.193-21.307 48.68-46.886 48.68-8.92 0-14.893-1.963-24.888-1.963v-93.737zm25.036 84.838c20.988 0 33.236-10.438 33.236-37.137 0-26.279-12.792-37.707-33.093-37.707-9.344 0-12.4 1.256-12.4 3.912 0 5.973-.258 15.566-.258 28.236v38.82c.001 2.761 7.632 3.876 12.515 3.876zm146.957-33.096v-3.336c0-6.971-4.331-10.727-12.422-10.727-6.351 0-12.638 1.406-18.881 4.32v-10.998c6.381-2.373 12.659-3.609 20.011-3.609 14.326 0 23.087 5.85 23.087 20.592 0 11.129-.421 21.137-.421 31.574 0 5.549.271 10.17.584 13.777-10.179 0-16.572 1.82-24.922 1.82-15.15 0-22.937-7.826-22.937-19.619.001-12.815 10.571-23.237 35.901-23.794zm0 9.172c-16.151.285-23.108 4.734-23.108 13.787 0 5.842 4.172 10.406 11.546 10.406 7.231 0 10.282-1.779 10.832-4.713.58-2.644.73-10.007.73-19.48zm31.617 32.822h-11.799v-62.585c11.799 0 18.648-4.465 28.664-4.465 2.093 0 4.314.15 6.527.57v12.252c-2.926-1.115-6.664-1.693-10.012-1.693-6.952 0-12.942 2.658-13.088 8.094-.107 11.962-.292 30.74-.292 47.827zm111.586 0h-11.812v-41.721c0-10.293-4.043-14.045-11.967-14.045-5.848 0-12.499 2.643-12.499 6.543.271 1.395.511 3.744.511 6.113v43.109h-11.808v-41.721c0-10.58-4.288-14.045-11.288-14.045-6.08 0-12.628 2.229-12.628 7.65v48.115h-11.838v-62.857c12.8 0 16.985-3.35 26.559-3.35 8.529 0 12.53 2.668 15.757 5.713 5.006-3.35 11.104-5.713 19.877-5.713 12.509 0 21.137 5.836 21.137 22.385v43.824h-.001zm42.014-41.994v-3.336c0-6.971-4.292-10.727-12.357-10.727-6.407 0-12.672 1.406-18.894 4.32v-10.998c6.368-2.373 12.637-3.609 20.002-3.609 14.33 0 23.092 5.85 23.092 20.592 0 11.129-.438 21.137-.438 31.574 0 5.549.305 10.17.562 13.777-10.136 0-16.53 1.82-24.896 1.82-15.177 0-22.95-7.826-22.95-19.619 0-12.815 10.579-23.237 35.879-23.794zm0 9.172c-16.108.285-23.078 4.734-23.078 13.787 0 5.842 4.181 10.406 11.537 10.406 7.249 0 10.291-1.779 10.837-4.713.584-2.644.704-10.007.704-19.48zm-265.803-70.236c-4.254 0-7.901-.51-13.086-.877l.145.15s.754 5.387.754 14.375v90.396h11.013v-49.516c0-4.191 5.552-6.957 13.322-6.957 10.151 0 14.146 4.857 14.146 16.402v40.07h10.993v-44.809c0-16.549-10.136-22.25-22.094-22.25-6.85 0-12.257 1.959-15.877 3.906 0-13.35.414-27.311.562-40.805"/>
    <path fill="#8BC540" d="m194.47 1.739c16.93 0 31.864-1.739 45.312-1.739 47.296 0 83.103 24.144 82.985 85.883-.121 62.983-38.255 87.131-84.063 87.131-14.918 0-25.248-3.061-41.222-3.445-1.085-.027-.803-1.658-1.938-1.658l-1.383-4.275.309-161.897z"/>
    <path fill="#fff" d="m290.256 88.727c-1.859-5.153-7.569-7.831-12.721-5.972-5.151 1.864-7.836 7.573-5.975 12.727.468 1.296 1.18 2.435 2.063 3.384-6.04 9.016-14.898 15.957-25.176 19.67l-27.994 10.436c-7.735 2.793-14.69 7.174-20.476 12.853.436-2.989 1.017-5.97 1.747-8.937 2.272-4.314 5.743-7.829 10.051-10.168l11.515-6.258c5.604-3.045 9.939-7.667 12.595-13.409 1.114.089 2.265-.131 3.317-.703 2.885-1.569 3.959-5.197 2.39-8.091-1.573-2.888-5.201-3.958-8.088-2.388-2.882 1.569-3.96 5.197-2.391 8.087.19.351.412.674.659.971-2.229 4.917-5.909 8.875-10.689 11.473l-11.514 6.257c-1.509.819-2.927 1.763-4.252 2.813 8.302-21.474 24.31-39.288 45.094-49.802l2.888-1.517c12.103-6.122 15.322-9.823 20.114-15.702 2.591.619 5.422.207 7.813-1.378 4.564-3.036 5.811-9.216 2.778-13.78-3.031-4.564-9.214-5.812-13.778-2.776-4.563 3.026-5.809 9.214-2.779 13.778.328.493.694.945 1.09 1.359-4.275 5.211-7.144 8.193-17.761 13.561l-2.889 1.517c-12.942 6.55-24.032 15.585-32.964 26.856-8.637 10.898-14.788 23.271-18.284 36.776-3.521 13.61-4.123 27.506-1.784 41.327l.166.94c-1.139.926-1.867 2.338-1.867 3.92 0 2.791 2.263 5.055 5.053 5.055 2.791 0 5.054-2.264 5.054-5.055 0-1.941-1.097-3.625-2.702-4.471l-.237-1.336-.153-.946c2.741-3.353 6.404-5.749 10.578-6.931l18.09-4.957c4.857-1.369 9.136-4.016 12.485-7.703 1.832.617 3.861.71 5.859.145 5.271-1.486 8.356-6.982 6.865-12.255-1.486-5.279-6.988-8.356-12.263-6.872-5.276 1.487-8.354 6.992-6.866 12.267.372 1.319.996 2.501 1.805 3.509-2.572 2.645-5.774 4.553-9.371 5.566l-18.093 4.959c-3.693 1.043-7.06 2.834-9.936 5.26-.32-3.873-.396-7.744-.229-11.609 5.963-7.78 13.988-13.648 23.258-16.992l27.996-10.436c11.472-4.149 21.349-11.928 28.044-22.033 1.883.496 3.93.448 5.896-.261 5.155-1.861 7.833-7.571 5.969-12.728zm-17.34-48.178c2.338-1.552 5.492-.919 7.048 1.425 1.561 2.347.922 5.502-1.418 7.054-2.342 1.564-5.503.926-7.059-1.417-1.553-2.345-.92-5.503 1.429-7.062zm-29.811 95.339c2.703-.761 5.514.814 6.28 3.52.766 2.704-.813 5.521-3.52 6.283-2.701.765-5.523-.812-6.283-3.519-.763-2.705.816-5.515 3.523-6.284zm39.539-38.996c-2.646.956-5.567-.415-6.521-3.055-.953-2.644.409-5.566 3.06-6.519 2.643-.956 5.561.414 6.515 3.059.953 2.643-.412 5.56-3.054 6.515z"/>
</svg>
