<svg xmlns="http://www.w3.org/2000/svg" width="591" height="908">
    <path fill="#fff" d="M3.443 906.712c1.737-14.091-8.277-41.44 15.307-34.488 19.331 5.954 15.552-10.786 15.25-24.113v-316.059c-9.005-3.541-31.826 6.69-30.597-7.052 2.929-9.828-8.247-33.618 8.219-30.045 46.654.904 93.64-.907 140.088 1.675 51.398 8.731 107.405 47.263 106.117 104.682 5.187 52.536-31.792 104.482-84.334 113.86 1.012 10.131 10.674 24.174 15.005 35.806l56.002 120.955c17.833.022 35.667.044 53.5.067-1.597 11.122 3.053 28.534-2.167 36.009l-74.046-.509c-29.493-63-58.986-126-88.478-189-20.769-.176-41.539-.352-62.308-.529v154.028h62c-1.598 11.124 3.054 28.499-2.167 36-42.444-.493-85.078 1.231-127.39-1.288zm158.057-229.005c44.7-7.592 76.272-61.412 51.946-102.212-21.388-37.896-68.608-46.384-108.53-43.299-10.228 3.141-34.104-7.503-33.916 6.159v142.804c30.127-1.166 60.773 1.72 90.5-3.451zm173.946 229.012c1.734-14.091-8.282-41.448 15.304-34.495 19.331 5.954 15.552-10.786 15.25-24.113v-316.059c-9.005-3.541-31.826 6.69-30.597-7.052 2.925-9.818-8.242-33.519 8.22-30 49.251 1.119 98.996-3.106 147.821 3.558 54.674 9.918 107.781 58.354 98.681 117.85-1.152 52.37-45.219 97.018-97.248 100.348-29.935 1.319-59.919.939-89.877 1.388v153.827l62.5.528c-1.658 10.737 3.115 27.881-2.167 35.009-42.61-.331-85.405 1.588-127.887-.79zm146.054-226.763c42.33-2.911 79.634-41.721 71.449-85.246-10.1-47.66-65.39-67.325-109.251-62.708-12.629 1.653-31.706-3.131-40.699 2.164v146.833c26.164-.191 52.371.533 78.5-1.044zm-481.273-243.706c-4.37-17.119 4.894-20.603 20.19-18.056 19.353 5.917 16.064-10.463 15.583-24.077v-316.071c-10.952-1.796-28.15 2.651-35.532-2.713 2.583-10.155-6.018-31.328 3.821-34.333h117.756c-1.736 11.339 2.591 28.765-2.712 36.524l-46.333.512v339.964h183.968c.177-18.5.354-37 .532-55.5 10.5 3.001 34.363-7.576 34.5 5.954v85.546h-292.046l.273-17.75zm377.773-22.75c-4.599-18.322 4.849-22.597 21.67-19.5 10.639-2.416 33.528 7.418 28.33-10.835v-70.155l-197.921-.51 238.421-312.778.507 271.278h62.993v42h-63v81h54c-1.415 12.307 2.85 30.295-2.167 39h-142.833v-19.5zm50-217.2c-2.829-18.629 5.442-70.235-5.234-68.055-36.407 47.513-72.285 95.432-108.938 142.755h114.172v-74.7z"/>
</svg>
