<?xml version="1.0" encoding="utf-8"?>
<!-- Generator: Adobe Illustrator 16.0.0, SVG Export Plug-In . SVG Version: 6.00 Build 0)  -->
<!DOCTYPE svg PUBLIC "-//W3C//DTD SVG 1.1//EN" "http://www.w3.org/Graphics/SVG/1.1/DTD/svg11.dtd">
<svg version="1.1" id="Layer_1" xmlns="http://www.w3.org/2000/svg" xmlns:xlink="http://www.w3.org/1999/xlink" x="0px" y="0px"
	 width="1140.938px" height="694.737px" viewBox="0 0 1140.938 694.737" enable-background="new 0 0 1140.938 694.737"
	 xml:space="preserve">
<rect fill="#00904C" width="1140.938" height="694.737"/>
<polygon fill="#FFFFFF" points="143.146,602.841 148.114,602.841 148.114,556.048 143.146,556.048 143.146,551.038 159.735,551.038 
	159.735,556.048 153.084,556.048 153.084,602.841 178.41,602.841 178.41,595.164 183.138,595.164 183.138,607.61 143.146,607.61 "/>
<g>
	<path fill="#FFFFFF" d="M186.342,592.497c0-2.154,0.412-4.188,1.242-6.101c0.828-1.912,1.951-3.596,3.367-5.051
		c1.414-1.455,3.098-2.613,5.047-3.476c1.951-0.86,4.049-1.293,6.293-1.293c1.496,0,2.897,0.216,4.207,0.647
		c1.309,0.432,2.471,0.969,3.486,1.617c1.014,0.646,1.855,1.32,2.524,2.02c0.668,0.702,1.082,1.322,1.241,1.859
		c0-0.861,0.041-1.75,0.121-2.667c0.08-0.916,0.146-1.831,0.201-2.748h4.088v25.538h6.01v4.769h-10.42v-2.424v-2.667
		c-0.213,0.539-0.627,1.131-1.241,1.778s-1.416,1.267-2.404,1.858c-0.989,0.594-2.138,1.092-3.446,1.495
		c-1.31,0.405-2.765,0.606-4.367,0.606c-2.244,0-4.342-0.418-6.293-1.253c-1.949-0.834-3.633-1.966-5.047-3.394
		c-1.416-1.427-2.539-3.097-3.367-5.01C186.754,596.688,186.342,594.653,186.342,592.497 M191.311,592.417
		c0,1.551,0.281,2.981,0.846,4.292c0.562,1.311,1.326,2.447,2.293,3.409c0.963,0.962,2.116,1.726,3.457,2.286
		c1.34,0.562,2.789,0.842,4.344,0.842c1.556,0,3.004-0.28,4.345-0.842c1.34-0.561,2.493-1.324,3.459-2.286
		c0.964-0.962,1.728-2.098,2.291-3.409c0.563-1.311,0.846-2.741,0.846-4.292c0-1.498-0.282-2.915-0.846-4.252
		c-0.563-1.336-1.327-2.486-2.291-3.448c-0.966-0.963-2.119-1.726-3.459-2.287c-1.341-0.561-2.789-0.843-4.345-0.843
		c-1.555,0-3.004,0.282-4.344,0.843c-1.341,0.561-2.494,1.324-3.457,2.287c-0.967,0.962-1.73,2.112-2.293,3.448
		C191.592,589.501,191.311,590.918,191.311,592.417"/>
	<path fill="#FFFFFF" d="M227.375,602.841h6.01v-50.834h-5.449v-5.011h10.418v32.327c-0.107,0.594-0.2,1.146-0.28,1.657
		c-0.08,0.513-0.174,1.038-0.28,1.576c0.213-0.538,0.668-1.158,1.362-1.859c0.694-0.699,1.55-1.36,2.563-1.98
		c1.016-0.618,2.164-1.131,3.447-1.535c1.282-0.405,2.672-0.607,4.168-0.607c2.243,0,4.327,0.418,6.252,1.253
		c1.922,0.836,3.592,1.981,5.008,3.435c1.414,1.455,2.537,3.139,3.367,5.051c0.826,1.914,1.241,3.948,1.241,6.102
		c0,2.155-0.415,4.189-1.241,6.102c-0.83,1.913-1.953,3.596-3.367,5.05c-1.416,1.455-3.086,2.601-5.008,3.435
		c-1.925,0.835-4.009,1.253-6.252,1.253c-1.604,0-3.06-0.202-4.369-0.606c-1.309-0.403-2.457-0.901-3.445-1.495
		c-0.989-0.592-1.803-1.212-2.444-1.858c-0.641-0.646-1.069-1.239-1.282-1.778v2.667v2.424h-10.418V602.841z M260.233,592.417
		c0-1.498-0.271-2.915-0.806-4.252c-0.536-1.336-1.287-2.486-2.252-3.448c-0.965-0.963-2.118-1.726-3.459-2.287
		c-1.34-0.561-2.789-0.843-4.342-0.843c-1.611,0-3.086,0.282-4.426,0.843c-1.341,0.561-2.494,1.324-3.458,2.287
		c-0.966,0.962-1.729,2.112-2.293,3.448c-0.563,1.337-0.845,2.754-0.845,4.252c0,1.551,0.281,2.981,0.845,4.292
		c0.563,1.311,1.327,2.447,2.293,3.409c0.964,0.962,2.117,1.726,3.458,2.286c1.34,0.562,2.814,0.842,4.426,0.842
		c1.553,0,3.002-0.28,4.342-0.842c1.341-0.561,2.494-1.324,3.459-2.286s1.716-2.098,2.252-3.409
		C259.963,595.398,260.233,593.967,260.233,592.417"/>
	<path fill="#FFFFFF" d="M290.045,602.841h4.889v-20.527h-4.889v-5.011h4.809v-11.476c0-3.016,0.467-5.683,1.403-8.001
		c0.935-2.316,2.203-4.27,3.808-5.859c1.602-1.589,3.498-2.801,5.688-3.637c2.19-0.835,4.541-1.305,7.053-1.414v5.01
		c-1.827,0.055-3.536,0.416-5.12,1.085c-1.587,0.67-2.957,1.605-4.113,2.809c-1.156,1.206-2.07,2.666-2.741,4.377
		c-0.673,1.714-1.009,3.641-1.009,5.783v11.323h9.699v5.011h-9.699v20.527h6.812v4.769h-16.59V602.841z"/>
	<path fill="#FFFFFF" d="M310.801,592.417c0-2.154,0.412-4.203,1.242-6.143c0.828-1.939,1.963-3.623,3.406-5.05
		c1.442-1.427,3.127-2.559,5.049-3.395c1.924-0.835,3.98-1.253,6.172-1.253c2.244,0,4.34,0.418,6.291,1.253
		c1.949,0.836,3.646,1.968,5.088,3.395c1.443,1.427,2.578,3.111,3.408,5.05c0.826,1.939,1.241,3.989,1.241,6.143
		c0,2.21-0.415,4.271-1.241,6.183c-0.83,1.913-1.965,3.583-3.408,5.01c-1.441,1.428-3.139,2.56-5.088,3.394
		c-1.951,0.835-4.047,1.253-6.291,1.253c-2.191,0-4.248-0.418-6.172-1.253c-1.922-0.834-3.606-1.966-5.049-3.394
		c-1.443-1.427-2.578-3.097-3.406-5.01C311.213,596.687,310.801,594.626,310.801,592.417 M315.77,592.497
		c0,1.498,0.281,2.901,0.845,4.212s1.327,2.447,2.293,3.409s2.104,1.726,3.419,2.286c1.312,0.562,2.721,0.842,4.223,0.842
		c1.5,0,2.922-0.28,4.263-0.842c1.34-0.56,2.508-1.324,3.499-2.286c0.992-0.962,1.77-2.099,2.333-3.409s0.846-2.714,0.846-4.212
		c0-1.497-0.282-2.914-0.846-4.251c-0.563-1.336-1.341-2.499-2.333-3.489c-0.991-0.99-2.159-1.766-3.499-2.327
		c-1.341-0.561-2.763-0.843-4.263-0.843c-1.502,0-2.91,0.282-4.223,0.843c-1.314,0.561-2.453,1.337-3.419,2.327
		c-0.966,0.99-1.729,2.153-2.293,3.489C316.051,589.583,315.77,591,315.77,592.497"/>
	<path fill="#FFFFFF" d="M343.498,602.841h6.171v-20.527h-5.528v-5.011h9.776l0.08,1.778c0.053,1.131,0.12,2.142,0.2,3.031
		c0.08,0.889,0.146,1.898,0.199,3.03c0.643-1.347,1.444-2.546,2.406-3.597c0.961-1.051,1.989-1.939,3.086-2.667
		c1.094-0.727,2.215-1.279,3.365-1.657c1.148-0.376,2.23-0.565,3.245-0.565l-0.319,5.011c-1.658,0-3.195,0.269-4.609,0.806
		c-1.416,0.537-2.633,1.262-3.646,2.173c-1.016,0.913-1.816,2.001-2.404,3.26c-0.588,1.262-0.881,2.645-0.881,4.147v10.787h5.529
		v4.769h-16.67V602.841z"/>
	<polygon fill="#FFFFFF" points="398.154,557.583 403.123,557.583 403.123,577.304 411.618,577.304 411.618,582.314 
		403.123,582.314 403.123,602.841 409.374,602.841 409.374,607.61 398.154,607.61 398.154,582.314 391.342,582.314 391.342,577.304 
		398.154,577.304 	"/>
	<path fill="#FFFFFF" d="M437.744,602.841h6.252v-15.135c-0.107-1.556-0.682-2.925-1.725-4.105
		c-1.041-1.181-2.631-1.825-4.768-1.934c-1.55,0-3.005,0.269-4.367,0.806c-1.363,0.537-2.58,1.262-3.647,2.173
		c-1.069,0.913-1.91,2.001-2.524,3.26c-0.615,1.262-0.921,2.645-0.921,4.147v10.787h5.529v4.769h-16.67v-4.769h6.171v-50.834h-6.012
		v-5.011h10.981v34.51l-0.241,3.637c1.174-2.587,2.898-4.62,5.17-6.103c2.271-1.48,4.929-2.275,7.974-2.384
		c3.046,0,5.45,0.836,7.213,2.506c1.765,1.67,2.696,3.853,2.806,6.546v17.133h5.449v4.769h-16.67V602.841z"/>
	<path fill="#FFFFFF" d="M485.028,589.022l-23.321,8.97c0.908,1.592,2.176,2.866,3.807,3.822c1.629,0.954,3.486,1.431,5.57,1.431
		c1.442,0,2.791-0.262,4.047-0.785c1.255-0.524,2.337-1.232,3.246-2.124c0.48,0.594,0.974,1.199,1.482,1.818
		c0.508,0.62,1.028,1.226,1.562,1.819c-1.389,1.347-2.952,2.397-4.688,3.151c-1.737,0.754-3.62,1.132-5.649,1.132
		c-2.191,0-4.248-0.418-6.172-1.253c-1.922-0.834-3.606-1.966-5.049-3.394c-1.443-1.427-2.578-3.098-3.406-5.01
		c-0.83-1.912-1.242-3.973-1.242-6.183c0-2.154,0.412-4.203,1.242-6.142c0.828-1.94,1.963-3.624,3.406-5.051
		c1.442-1.427,3.127-2.559,5.049-3.395c1.924-0.835,3.98-1.253,6.172-1.253c1.656,0,3.218,0.311,4.688,0.93
		c1.471,0.62,2.807,1.482,4.008,2.586c1.202,1.105,2.256,2.425,3.165,3.96C483.853,585.587,484.547,587.244,485.028,589.022
		 M471.018,581.586c-1.671,0-3.207,0.322-4.607,0.964c-1.402,0.642-2.588,1.497-3.559,2.568c-0.971,1.072-1.698,2.301-2.182,3.693
		c-0.484,1.391-0.646,2.862-0.486,4.413c3.072-1.185,6.145-2.357,9.217-3.516c3.072-1.157,6.143-2.329,9.217-3.516
		c-0.81-1.376-1.873-2.487-3.193-3.335C474.103,582.011,472.634,581.586,471.018,581.586"/>
	<path fill="#FFFFFF" d="M510.111,602.842h4.248v-46.793h-4.248v-5.011h16.83c1.764,0,3.687,0.283,5.771,0.848
		c2.084,0.566,4.048,1.456,5.89,2.667c1.845,1.212,3.379,2.762,4.609,4.647c1.229,1.886,1.844,4.176,1.844,6.869
		c0,3.987-1.016,7.302-3.046,9.941c-2.032,2.64-4.969,4.391-8.815,5.252l10.018,21.579h7.293v4.768h-10.419l-12.183-26.023
		c-0.588,0.054-1.176,0.081-1.762,0.081h-1.764h-5.049v21.174h8.574v4.768h-17.791V602.842z M519.328,576.657h7.613
		c2.564,0,4.701-0.331,6.412-0.994c1.709-0.662,3.058-1.511,4.047-2.547c0.988-1.034,1.683-2.174,2.084-3.421
		c0.4-1.246,0.601-2.453,0.601-3.621c0-1.326-0.334-2.599-1.002-3.818c-0.668-1.221-1.576-2.282-2.726-3.183
		c-1.148-0.901-2.523-1.632-4.127-2.188c-1.603-0.557-3.34-0.836-5.209-0.836h-7.693V576.657z"/>
	<path fill="#FFFFFF" d="M581.117,589.022l-23.322,8.97c0.908,1.592,2.177,2.866,3.808,3.822c1.629,0.954,3.485,1.431,5.569,1.431
		c1.443,0,2.791-0.262,4.048-0.785c1.255-0.524,2.337-1.232,3.245-2.124c0.481,0.594,0.975,1.199,1.483,1.818
		c0.507,0.62,1.028,1.226,1.562,1.819c-1.39,1.347-2.952,2.397-4.688,3.151s-3.619,1.132-5.65,1.132c-2.19,0-4.248-0.418-6.17-1.253
		c-1.924-0.834-3.607-1.966-5.049-3.394c-1.443-1.427-2.578-3.098-3.408-5.01c-0.828-1.912-1.241-3.973-1.241-6.183
		c0-2.154,0.413-4.203,1.241-6.142c0.83-1.94,1.965-3.624,3.408-5.051c1.441-1.427,3.125-2.559,5.049-3.395
		c1.922-0.835,3.979-1.253,6.17-1.253c1.656,0,3.219,0.311,4.688,0.93c1.47,0.62,2.806,1.482,4.009,2.586
		c1.201,1.105,2.255,2.425,3.164,3.96C579.941,585.587,580.637,587.244,581.117,589.022 M567.106,581.586
		c-1.671,0-3.207,0.322-4.608,0.964s-2.586,1.497-3.558,2.568c-0.971,1.072-1.698,2.301-2.183,3.693
		c-0.483,1.391-0.646,2.862-0.485,4.413c3.072-1.185,6.144-2.357,9.217-3.516c3.072-1.157,6.144-2.329,9.218-3.516
		c-0.811-1.376-1.873-2.487-3.194-3.335C570.191,582.011,568.723,581.586,567.106,581.586"/>
	<path fill="#FFFFFF" d="M610.449,604.782c-1.39,1.078-2.926,1.927-4.608,2.545c-1.683,0.619-3.486,0.93-5.409,0.93
		c-2.191,0-4.248-0.418-6.172-1.253c-1.923-0.834-3.606-1.966-5.049-3.394s-2.578-3.098-3.407-5.011
		c-0.829-1.912-1.241-3.972-1.241-6.183c0-2.154,0.412-4.203,1.241-6.143c0.829-1.939,1.965-3.623,3.407-5.051
		c1.442-1.426,3.126-2.559,5.049-3.395c1.924-0.835,3.98-1.253,6.172-1.253c1.976,0,3.807,0.31,5.489,0.93
		c1.684,0.62,3.218,1.468,4.608,2.546v8.728h-4.488v-5.675c-1.763-1.011-3.634-1.518-5.609-1.518c-1.551,0-2.993,0.282-4.328,0.842
		c-1.336,0.562-2.484,1.325-3.446,2.288c-0.962,0.961-1.723,2.112-2.284,3.448c-0.561,1.337-0.842,2.754-0.842,4.252
		c0,1.551,0.281,2.981,0.842,4.292c0.562,1.311,1.322,2.447,2.284,3.409s2.11,1.726,3.446,2.286
		c1.335,0.562,2.777,0.842,4.328,0.842c1.389,0,2.657-0.194,3.807-0.585c1.147-0.39,2.204-0.949,3.165-1.678L610.449,604.782z"/>
	<path fill="#FFFFFF" d="M643.548,589.022l-23.321,8.97c0.907,1.592,2.176,2.866,3.807,3.822c1.629,0.954,3.486,1.431,5.57,1.431
		c1.442,0,2.791-0.262,4.047-0.785c1.255-0.524,2.337-1.232,3.246-2.124c0.48,0.594,0.974,1.199,1.482,1.818
		c0.507,0.62,1.028,1.226,1.562,1.819c-1.39,1.347-2.952,2.397-4.688,3.151c-1.737,0.754-3.62,1.132-5.649,1.132
		c-2.191,0-4.248-0.418-6.172-1.253c-1.923-0.834-3.606-1.966-5.049-3.394c-1.442-1.427-2.578-3.098-3.406-5.01
		c-0.829-1.912-1.242-3.973-1.242-6.183c0-2.154,0.413-4.203,1.242-6.142c0.828-1.94,1.964-3.624,3.406-5.051
		s3.126-2.559,5.049-3.395c1.924-0.835,3.98-1.253,6.172-1.253c1.655,0,3.218,0.311,4.688,0.93c1.47,0.62,2.806,1.482,4.008,2.586
		c1.202,1.105,2.256,2.425,3.165,3.96C642.372,585.587,643.067,587.244,643.548,589.022 M629.537,581.586
		c-1.671,0-3.207,0.322-4.608,0.964s-2.587,1.497-3.558,2.568c-0.971,1.072-1.698,2.301-2.182,3.693
		c-0.484,1.391-0.646,2.862-0.486,4.413c3.072-1.185,6.144-2.357,9.217-3.516c3.072-1.157,6.144-2.329,9.217-3.516
		c-0.81-1.376-1.873-2.487-3.193-3.335C632.622,582.011,631.153,581.586,629.537,581.586"/>
	<path fill="#FFFFFF" d="M667.43,602.841h6.252v-15.135c-0.108-1.556-0.682-2.925-1.724-4.105s-2.632-1.825-4.769-1.934
		c-1.55,0-3.005,0.269-4.367,0.806c-1.363,0.537-2.58,1.262-3.647,2.173c-1.069,0.913-1.91,2.001-2.524,3.26
		c-0.615,1.262-0.921,2.645-0.921,4.147v10.787h5.529v4.769h-16.67v-4.769h6.171v-20.608h-5.529v-4.93h9.777l0.08,1.778
		c0.053,1.131,0.12,2.142,0.2,3.031c0.079,0.889,0.146,1.898,0.2,3.03c1.068-2.587,2.792-4.647,5.17-6.183
		c2.377-1.536,5.035-2.304,7.974-2.304c3.046,0,5.45,0.836,7.213,2.506c1.764,1.67,2.697,3.853,2.806,6.546v17.133h5.449v4.769
		h-16.67V602.841z"/>
	<polygon fill="#FFFFFF" points="689.309,557.583 694.277,557.583 694.277,577.304 702.772,577.304 702.772,582.314 
		694.277,582.314 694.277,602.841 700.528,602.841 700.528,607.61 689.309,607.61 689.309,582.314 682.495,582.314 682.495,577.304 
		689.309,577.304 	"/>
	<polygon fill="#FFFFFF" points="706.058,602.841 712.068,602.841 712.068,552.007 706.619,552.007 706.619,546.997 
		717.036,546.997 717.036,602.841 722.728,602.841 722.728,607.61 706.058,607.61 	"/>
	<path fill="#FFFFFF" d="M728.097,623.046h6.973c1.229-2.587,2.497-5.16,3.807-7.719c1.309-2.559,2.577-5.105,3.807-7.636
		c-2.138-4.23-4.261-8.458-6.371-12.689c-2.111-4.229-4.236-8.458-6.371-12.688h-6.412v-5.011h16.35v5.011h-4.729
		c1.815,3.421,3.606,6.869,5.369,10.344c1.764,3.476,3.339,6.95,4.729,10.426c1.389-3.421,2.966-6.87,4.729-10.345
		c1.764-3.476,3.553-6.95,5.37-10.425h-4.809v-5.011h16.028v5.011h-6.171c-3.42,6.816-6.826,13.59-10.218,20.325
		c-3.394,6.734-6.772,13.537-10.139,20.407h4.568v4.768h-16.51V623.046z"/>
	<path fill="#FFFFFF" d="M791.568,602.842h4.248v-46.793h-4.248v-5.011h16.83c1.764,0,3.687,0.283,5.771,0.848
		c2.084,0.566,4.048,1.456,5.891,2.667c1.844,1.212,3.379,2.762,4.608,4.647c1.229,1.886,1.843,4.176,1.843,6.869
		c0,4.741-1.442,8.526-4.327,11.355c-2.886,2.829-7.08,4.243-12.584,4.243h-8.814v21.174h8.575v4.768h-17.792V602.842z
		 M800.785,576.657h7.613c2.564,0,4.701-0.331,6.412-0.994c1.709-0.662,3.058-1.511,4.047-2.547
		c0.988-1.034,1.683-2.174,2.084-3.421c0.4-1.246,0.601-2.453,0.601-3.621c0-1.326-0.334-2.599-1.002-3.818
		c-0.668-1.221-1.576-2.282-2.725-3.183c-1.149-0.901-2.524-1.632-4.127-2.188c-1.604-0.557-3.341-0.836-5.21-0.836h-7.693V576.657z
		"/>
	<path fill="#FFFFFF" d="M821.702,592.417c0-2.154,0.413-4.203,1.241-6.143c0.829-1.939,1.965-3.623,3.407-5.05
		s3.126-2.559,5.049-3.395c1.924-0.835,3.98-1.253,6.172-1.253c2.243,0,4.34,0.418,6.291,1.253c1.949,0.836,3.646,1.968,5.089,3.395
		s2.577,3.111,3.406,5.05c0.827,1.939,1.242,3.989,1.242,6.143c0,2.21-0.415,4.271-1.242,6.183c-0.829,1.913-1.964,3.583-3.406,5.01
		c-1.442,1.428-3.14,2.56-5.089,3.394c-1.951,0.835-4.048,1.253-6.291,1.253c-2.191,0-4.248-0.418-6.172-1.253
		c-1.923-0.834-3.606-1.966-5.049-3.394c-1.442-1.427-2.578-3.097-3.407-5.01C822.115,596.687,821.702,594.626,821.702,592.417
		 M826.671,592.497c0,1.498,0.281,2.901,0.845,4.212s1.327,2.447,2.293,3.409c0.965,0.962,2.104,1.726,3.418,2.286
		c1.313,0.562,2.722,0.842,4.224,0.842c1.501,0,2.922-0.28,4.263-0.842c1.34-0.56,2.508-1.324,3.499-2.286
		c0.992-0.962,1.77-2.099,2.333-3.409c0.564-1.311,0.846-2.714,0.846-4.212c0-1.497-0.281-2.914-0.846-4.251
		c-0.563-1.336-1.341-2.499-2.333-3.489c-0.991-0.99-2.159-1.766-3.499-2.327c-1.341-0.561-2.762-0.843-4.263-0.843
		c-1.502,0-2.91,0.282-4.224,0.843s-2.453,1.337-3.418,2.327c-0.966,0.99-1.729,2.153-2.293,3.489
		C826.952,589.583,826.671,591,826.671,592.497"/>
	<path fill="#FFFFFF" d="M862.414,598.639v3.573c0.861,0.478,1.723,0.769,2.585,0.874c0.861,0.107,1.83,0.159,2.907,0.159
		c0.27,0,0.66-0.052,1.171-0.16c0.511-0.106,1.037-0.319,1.575-0.64c0.539-0.321,1.01-0.747,1.414-1.282
		c0.403-0.534,0.632-1.254,0.687-2.163c0.052-1.174-0.257-2.07-0.929-2.683c-0.671-0.614-1.518-1.12-2.538-1.522
		c-1.021-0.4-2.136-0.775-3.346-1.127c-1.21-0.349-2.339-0.82-3.385-1.414c-1.048-0.592-1.921-1.414-2.62-2.465
		c-0.698-1.05-1.048-2.491-1.048-4.323c0-1.562,0.293-2.895,0.882-4.001c0.587-1.103,1.334-2.007,2.244-2.707
		c0.907-0.7,1.896-1.213,2.965-1.536c1.068-0.323,2.084-0.484,3.046-0.484c0.373,0,0.921,0.04,1.643,0.121
		c0.722,0.081,1.495,0.229,2.324,0.444c0.828,0.216,1.643,0.525,2.444,0.93c0.802,0.404,1.495,0.929,2.084,1.576v6.465h-4.488
		v-3.667c-0.594-0.364-1.282-0.599-2.063-0.702c-0.782-0.104-1.362-0.157-1.741-0.157c-1.24,0-2.307,0.316-3.195,0.951
		c-0.891,0.634-1.282,1.611-1.175,2.932c0.107,0.898,0.523,1.612,1.25,2.139c0.725,0.528,1.598,1.004,2.619,1.426
		c1.021,0.423,2.109,0.85,3.265,1.281c1.154,0.432,2.23,0.997,3.225,1.696c0.994,0.701,1.827,1.59,2.499,2.667
		c0.671,1.079,1.008,2.453,1.008,4.122c0,0.809-0.161,1.752-0.481,2.829c-0.32,1.078-0.854,2.101-1.603,3.071
		c-0.749,0.969-1.763,1.778-3.046,2.424c-1.281,0.646-2.912,0.97-4.889,0.97c-0.748,0-1.576-0.054-2.484-0.161
		c-0.908-0.109-1.803-0.283-2.685-0.525c-0.882-0.243-1.736-0.567-2.564-0.97c-0.829-0.404-1.51-0.902-2.044-1.495v-6.466H862.414z"
		/>
	<path fill="#FFFFFF" d="M886.217,598.639v3.573c0.861,0.478,1.723,0.769,2.585,0.874c0.861,0.107,1.83,0.159,2.907,0.159
		c0.27,0,0.66-0.052,1.171-0.16c0.511-0.106,1.037-0.319,1.575-0.64c0.539-0.321,1.01-0.747,1.414-1.282
		c0.403-0.534,0.632-1.254,0.687-2.163c0.052-1.174-0.257-2.07-0.929-2.683c-0.671-0.614-1.518-1.12-2.538-1.522
		c-1.021-0.4-2.136-0.775-3.346-1.127c-1.21-0.349-2.339-0.82-3.385-1.414c-1.048-0.592-1.921-1.414-2.62-2.465
		c-0.698-1.05-1.048-2.491-1.048-4.323c0-1.562,0.293-2.895,0.882-4.001c0.587-1.103,1.334-2.007,2.244-2.707
		c0.907-0.7,1.896-1.213,2.965-1.536c1.068-0.323,2.084-0.484,3.046-0.484c0.373,0,0.921,0.04,1.643,0.121
		c0.722,0.081,1.495,0.229,2.324,0.444c0.828,0.216,1.643,0.525,2.444,0.93c0.802,0.404,1.495,0.929,2.084,1.576v6.465h-4.488
		v-3.667c-0.594-0.364-1.282-0.599-2.063-0.702c-0.782-0.104-1.362-0.157-1.741-0.157c-1.24,0-2.307,0.316-3.195,0.951
		c-0.891,0.634-1.282,1.611-1.175,2.932c0.107,0.898,0.523,1.612,1.25,2.139c0.725,0.528,1.598,1.004,2.619,1.426
		c1.021,0.423,2.109,0.85,3.265,1.281c1.154,0.432,2.23,0.997,3.225,1.696c0.994,0.701,1.827,1.59,2.499,2.667
		c0.671,1.079,1.008,2.453,1.008,4.122c0,0.809-0.161,1.752-0.481,2.829c-0.32,1.078-0.854,2.101-1.603,3.071
		c-0.749,0.969-1.763,1.778-3.046,2.424c-1.281,0.646-2.912,0.97-4.889,0.97c-0.748,0-1.576-0.054-2.484-0.161
		c-0.908-0.109-1.803-0.283-2.685-0.525c-0.882-0.243-1.736-0.567-2.564-0.97c-0.829-0.404-1.51-0.902-2.044-1.495v-6.466H886.217z"
		/>
	<path fill="#FFFFFF" d="M904.408,602.841h5.931v-20.527h-5.931v-5.011h10.899v25.538h5.771v4.769h-16.67V602.841z M909.458,566.11
		c0-0.958,0.347-1.771,1.041-2.436c0.694-0.665,1.495-0.999,2.404-0.999c0.854,0,1.616,0.334,2.283,0.999
		c0.669,0.665,1.003,1.478,1.003,2.436c0,1.012-0.334,1.824-1.003,2.437c-0.667,0.612-1.429,0.917-2.283,0.917
		c-0.909,0-1.71-0.305-2.404-0.917C909.805,567.934,909.458,567.122,909.458,566.11"/>
	<path fill="#FFFFFF" d="M924.284,602.841h6.011v-50.834h-5.449v-5.011h10.418v32.327c-0.107,0.594-0.2,1.146-0.28,1.657
		c-0.08,0.513-0.174,1.038-0.28,1.576c0.213-0.538,0.667-1.158,1.362-1.859c0.694-0.699,1.549-1.36,2.564-1.98
		c1.015-0.618,2.164-1.131,3.446-1.535c1.282-0.405,2.671-0.607,4.168-0.607c2.243,0,4.327,0.418,6.251,1.253
		c1.923,0.836,3.593,1.981,5.009,3.435c1.415,1.455,2.537,3.139,3.366,5.051c0.827,1.914,1.242,3.948,1.242,6.102
		c0,2.155-0.415,4.189-1.242,6.102c-0.829,1.913-1.951,3.596-3.366,5.05c-1.416,1.455-3.086,2.601-5.009,3.435
		c-1.924,0.835-4.008,1.253-6.251,1.253c-1.604,0-3.06-0.202-4.368-0.606c-1.31-0.403-2.458-0.901-3.446-1.495
		c-0.989-0.592-1.803-1.212-2.444-1.858c-0.641-0.646-1.069-1.239-1.282-1.778v2.667v2.424h-10.419V602.841z M957.144,592.417
		c0-1.498-0.271-2.915-0.806-4.252c-0.536-1.336-1.287-2.486-2.251-3.448c-0.966-0.963-2.119-1.726-3.459-2.287
		c-1.341-0.561-2.789-0.843-4.344-0.843c-1.609,0-3.085,0.282-4.425,0.843c-1.341,0.561-2.494,1.324-3.458,2.287
		c-0.966,0.962-1.729,2.112-2.293,3.448c-0.563,1.337-0.845,2.754-0.845,4.252c0,1.551,0.281,2.981,0.845,4.292
		c0.563,1.311,1.327,2.447,2.293,3.409c0.964,0.962,2.117,1.726,3.458,2.286c1.34,0.562,2.815,0.842,4.425,0.842
		c1.555,0,3.003-0.28,4.344-0.842c1.34-0.561,2.493-1.324,3.459-2.286c0.964-0.962,1.715-2.098,2.251-3.409
		C956.873,595.398,957.144,593.967,957.144,592.417"/>
	<polygon fill="#FFFFFF" points="962.912,602.841 968.923,602.841 968.923,552.007 963.474,552.007 963.474,546.997 
		973.891,546.997 973.891,602.841 979.582,602.841 979.582,607.61 962.912,607.61 	"/>
	<path fill="#FFFFFF" d="M1010.197,589.022l-23.322,8.97c0.908,1.592,2.177,2.866,3.808,3.822c1.629,0.954,3.485,1.431,5.569,1.431
		c1.443,0,2.791-0.262,4.048-0.785c1.255-0.524,2.337-1.232,3.245-2.124c0.481,0.594,0.975,1.199,1.483,1.818
		c0.507,0.62,1.028,1.226,1.562,1.819c-1.39,1.347-2.952,2.397-4.688,3.151c-1.737,0.754-3.62,1.132-5.65,1.132
		c-2.19,0-4.247-0.418-6.171-1.253c-1.923-0.834-3.606-1.966-5.049-3.394c-1.442-1.427-2.578-3.098-3.407-5.01
		c-0.828-1.912-1.241-3.973-1.241-6.183c0-2.154,0.413-4.203,1.241-6.142c0.829-1.94,1.965-3.624,3.407-5.051
		s3.126-2.559,5.049-3.395c1.924-0.835,3.98-1.253,6.171-1.253c1.656,0,3.219,0.311,4.688,0.93c1.47,0.62,2.806,1.482,4.008,2.586
		c1.202,1.105,2.256,2.425,3.165,3.96C1009.021,585.587,1009.717,587.244,1010.197,589.022 M996.187,581.586
		c-1.671,0-3.207,0.322-4.608,0.964s-2.587,1.497-3.558,2.568c-0.971,1.072-1.698,2.301-2.182,3.693
		c-0.484,1.391-0.646,2.862-0.486,4.413c3.072-1.185,6.144-2.357,9.217-3.516c3.072-1.157,6.144-2.329,9.217-3.516
		c-0.81-1.376-1.873-2.487-3.193-3.335C999.271,582.011,997.803,581.586,996.187,581.586"/>
	<polygon fill="#FFFFFF" points="144.705,473.733 179.613,473.733 179.613,144.923 144.705,144.923 144.705,109.708 
		261.273,109.708 261.273,144.923 214.534,144.923 214.534,473.733 392.492,473.733 392.492,419.775 425.713,419.775 
		425.713,507.236 144.705,507.236 	"/>
	<path fill="#FFFFFF" d="M379.682,282.022h24.949v-41.049h-99.477l119.83-157.271V220.44h31.85v20.533h-31.85v41.049h27.254v19.524
		h-72.557V282.022z M404.631,144.62l-57.779,75.82h57.779V144.62z"/>
	<path fill="#FFFFFF" d="M456.987,473.733h29.858v-328.81h-29.858v-35.215h118.268c12.385,0,25.898,1.997,40.545,5.97
		c14.639,3.975,28.44,10.224,41.393,18.74c12.952,8.508,23.748,19.398,32.383,32.66c8.636,13.255,12.951,29.331,12.951,48.274
		c0,28.02-7.137,51.293-21.396,69.849c-14.274,18.548-34.926,30.86-61.943,36.898l70.388,151.634h51.248v33.503h-73.216
		L582.02,324.373c-4.141,0.383-8.267,0.573-12.394,0.573h-12.391h-35.487v148.787h60.271v33.503H456.987V473.733z M521.748,289.735
		h53.507c18.015,0,33.03-2.319,45.054-6.979c12.015-4.661,21.486-10.626,28.439-17.902c6.941-7.265,11.819-15.28,14.646-24.033
		c2.813-8.759,4.213-17.229,4.213-25.448c0-9.321-2.354-18.265-7.04-26.84c-4.699-8.569-11.08-16.022-19.136-22.353
		c-8.087-6.334-17.75-11.467-29.009-15.377c-11.27-3.922-23.471-5.88-36.608-5.88h-54.066V289.735z"/>
	<path fill="#FFFFFF" d="M770.401,473.733h29.867v-328.81h-29.867v-35.215h118.282c12.378,0,25.885,1.997,40.531,5.97
		c14.646,3.975,28.439,10.224,41.393,18.74c12.971,8.508,23.756,19.398,32.396,32.66c8.635,13.255,12.951,29.331,12.951,48.274
		c0,33.307-10.138,59.903-30.418,79.776c-20.275,19.886-49.758,29.818-88.409,29.818h-61.951v148.787h60.258v33.503H770.401V473.733
		z M835.177,289.735h53.507c18.014,0,33.016-2.319,45.038-6.979c12.022-4.661,21.495-10.626,28.442-17.902
		c6.94-7.265,11.831-15.28,14.646-24.033c2.813-8.759,4.218-17.229,4.218-25.448c0-9.321-2.353-18.265-7.033-26.84
		c-4.7-8.569-11.093-16.022-19.135-22.353c-8.087-6.334-17.75-11.467-29.009-15.377c-11.283-3.922-23.478-5.88-36.62-5.88h-54.055
		V289.735z"/>
</g>
</svg>
