<svg xmlns="http://www.w3.org/2000/svg" viewBox="0 0 211 482">
    <style>
        * { stroke:#2F4430; fill:none; stroke-width:8; }
        .root { fill:#2F4430; stroke:none; }
        .bg { stroke-width:4; }
    </style>
    <g transform="matrix(0 -1 1 0 -1 483)">
        <circle r="7" cy="205" cx="8" class="root"/>
        <circle r="12" cy="144" cx="191"/>
        <circle r="12" cy="68" cx="334"/>
        <circle r="12" cy="17" cx="467"/>
        <circle r="6" cy="65" cx="234" class="bg" stroke="#2f4430" stroke-width="4"/>
        <path d="m455.914 20.753c-38.849 12-80.8 16.3-123.8 11.198l-15.436-1.829c-88.978-11.1-173.6 18.9-235.6 73.878-30.917 27.7-56.2 61.9-73.5 100"/>
        <path d="m181.902 151.852c-12.646 9.3-28.3 14.9-45.2 14.87h-65.391c-22.76 0-43.2 10-57.1 25"/>
        <path d="m325.084 75.316c-29.57 23.9-67.2 38.3-108.3 38.257h-75.551c-35.68 0-67.6 10-95.1 28"/>
        <path d="m229.57 69.618c-14.755 11.9-33.5 19-53.9 18.967h-40.773c-17.84 0-38.9 5.8-58.4 20" class="bg"/>
    </g>
</svg>
