<svg xmlns="http://www.w3.org/2000/svg" width="211" height="482">
    <style>
        g * { stroke:#0b190e; fill:none; stroke-width:8; }
        .root { fill:#0b190e; stroke:none; }
        .bg { stroke-width:4; }
    </style>
    <!-- use matrix(0 -1 1 0 -1 483) to flip vertically -->
    <g transform="matrix(0 -1 -1 0 212 483)" opacity="0.1">
        <circle class="root" cx="8" cy="205" r="7"/>
        <circle cx="191" cy="144" r="12"/>
        <circle cx="334" cy="68" r="12"/>
        <circle cx="467" cy="17" r="12"/>
        <path d="m455.914 20.753c-38.849 12-80.8 16.3-123.8 11.198l-15.436-1.829c-88.978-11.1-173.6 18.9-235.6 73.878-30.917 27.7-56.2 61.9-73.5 100"/>
        <path d="m181.902 151.852c-12.646 9.3-28.3 14.9-45.2 14.87h-65.391c-22.76 0-43.2 10-57.1 25"/>
        <path d="m325.084 75.316c-29.57 23.9-67.2 38.3-108.3 38.257h-75.551c-35.68 0-67.6 10-95.1 28"/>
        <path class="bg" d="m229.57 69.618c-14.755 11.9-33.5 19-53.9 18.967h-40.773c-17.84 0-38.9 5.8-58.4 20"/>
        <circle class="bg" cx="234" cy="65" r="6"/>
    </g>
</svg>
