<?xml version="1.0" encoding="utf-8"?>
<!-- Generator: Adobe Illustrator 16.0.0, SVG Export Plug-In . SVG Version: 6.00 Build 0)  -->
<!DOCTYPE svg PUBLIC "-//W3C//DTD SVG 1.1//EN" "http://www.w3.org/Graphics/SVG/1.1/DTD/svg11.dtd">
<svg version="1.1" id="Layer_1" xmlns="http://www.w3.org/2000/svg" xmlns:xlink="http://www.w3.org/1999/xlink" x="0px" y="0px"
	 width="206px" height="67.91px" viewBox="0 0 206 67.91" enable-background="new 0 0 206 67.91" xml:space="preserve">
<g>
	<path fill="#84C558" d="M49.595,46.218l2.584,7.133h-1.083c-0.177-0.599-0.483-1.503-0.714-2.175h-2.564l-0.798,2.175h-0.987
		c0.904-2.143,2.291-5.768,2.722-7.133H49.595z M50.12,50.367c-0.273-0.84-0.567-1.66-0.895-2.447
		c-0.041-0.085-0.062-0.137-0.094-0.137s-0.074,0.041-0.096,0.137c-0.314,0.798-0.65,1.692-0.924,2.447H50.12z"/>
	<path fill="#84C558" d="M55.225,50.314c-0.316,0-0.642-0.041-0.968-0.115v3.151h-0.945V46.27c0.746,0,1.155-0.104,1.869-0.104
		c1.492,0,2.428,0.735,2.428,2.069C57.608,49.558,56.579,50.314,55.225,50.314z M54.257,49.421c0.262,0.064,0.557,0.096,0.799,0.096
		c0.883,0,1.502-0.41,1.502-1.251c0-0.84-0.578-1.279-1.407-1.279c-0.798,0-0.831,0.145-0.842,0.314
		C54.268,47.981,54.257,48.813,54.257,49.421z"/>
	<path fill="#84C558" d="M60.864,50.314c-0.316,0-0.641-0.041-0.967-0.115v3.151h-0.945V46.27c0.746,0,1.154-0.104,1.869-0.104
		c1.492,0,2.428,0.735,2.428,2.069C63.249,49.558,62.221,50.314,60.864,50.314z M59.897,49.421c0.263,0.064,0.558,0.096,0.798,0.096
		c0.884,0,1.503-0.41,1.503-1.251c0-0.84-0.578-1.279-1.408-1.279c-0.797,0-0.83,0.145-0.841,0.314
		C59.908,47.981,59.897,48.813,59.897,49.421z"/>
	<path fill="#84C558" d="M66.482,46.103c0.378,0,0.746,0.02,1.134,0.104v0.955c-0.398-0.136-0.818-0.198-1.197-0.198
		c-0.735,0-1.271,0.314-1.271,0.998c0,1.293,2.91,1.471,2.91,3.465c0,1.389-1.124,2.071-2.594,2.071
		c-0.453,0-0.895-0.043-1.346-0.136v-0.895c0.451,0.106,0.883,0.158,1.282,0.158c0.935,0,1.607-0.348,1.607-1.103
		c0-1.524-2.899-1.524-2.899-3.447C64.108,46.869,65.147,46.103,66.482,46.103z"/>
	<path fill="#84C558" d="M72.835,53.351V46.27h3.678v0.853c-0.629-0.043-1.47-0.054-2.562-0.054c-0.095,0-0.148,0.062-0.148,0.169
		c-0.01,0.42-0.021,1.177-0.021,2.027h2.428v0.829H73.78v3.257H72.835z"/>
	<path fill="#84C558" d="M83.823,49.789c0,2.531-1.47,3.72-3.203,3.72c-1.744,0-3.215-1.156-3.215-3.677
		c0-2.531,1.471-3.729,3.215-3.729C82.354,46.103,83.823,47.259,83.823,49.789z M82.795,49.789c0-1.986-0.893-2.825-2.175-2.825
		c-1.293,0-2.186,0.894-2.186,2.868c0,1.985,0.893,2.836,2.186,2.836C81.902,52.668,82.795,51.765,82.795,49.789z"/>
	<path fill="#84C558" d="M90.597,53.351h-1.092l-1.764-2.541c-0.242-0.348-0.379-0.431-0.621-0.431h-0.608v2.972h-0.946V46.27
		c0.83,0,1.02-0.104,1.828-0.104c1.417,0,2.396,0.631,2.396,1.985c0,0.927-0.589,1.608-1.439,1.892L90.597,53.351z M87.204,49.549
		c0.988,0,1.565-0.421,1.565-1.346c0-0.852-0.661-1.229-1.45-1.229c-0.703,0-0.756,0.115-0.756,0.252
		c-0.041,0.693-0.052,1.744-0.052,2.322H87.204z"/>
	<path fill="#84C558" d="M99.725,47.278c-0.463-0.188-0.946-0.292-1.428-0.292c-1.493,0-2.597,0.744-2.597,2.824
		c0,2.103,1.145,2.815,2.597,2.815c0.555,0,0.985-0.085,1.428-0.295v0.884c-0.463,0.177-0.925,0.294-1.45,0.294
		c-1.934,0-3.604-0.998-3.604-3.635s1.701-3.771,3.626-3.771c0.461,0,1.017,0.073,1.428,0.21V47.278z"/>
	<path fill="#84C558" d="M102.159,53.351h-0.945V46.27h0.988c-0.021,0.652-0.043,1.461-0.043,2.879h3.248V46.27h0.986
		c-0.011,0.705-0.043,1.712-0.043,3.226v3.855h-0.943V50.01h-3.248V53.351z"/>
	<path fill="#84C558" d="M111.079,46.218l2.582,7.133h-1.082c-0.178-0.599-0.482-1.503-0.714-2.175h-2.563l-0.799,2.175h-0.986
		c0.902-2.143,2.289-5.768,2.72-7.133H111.079z M111.603,50.367c-0.273-0.84-0.566-1.66-0.893-2.447
		c-0.042-0.085-0.063-0.137-0.094-0.137c-0.031,0-0.074,0.041-0.096,0.137c-0.314,0.798-0.65,1.692-0.924,2.447H111.603z"/>
	<path fill="#84C558" d="M115.729,53.351h-0.935V46.27h1.103l3.068,4.948c0.032,0.054,0.095,0.147,0.116,0.147
		c0.031,0,0.042-0.063,0.042-0.137V46.27h0.978c-0.011,0.505-0.044,1.672-0.044,3.174v3.907h-0.966
		c-0.83-1.514-2.396-4.171-3.362-5.548V53.351z"/>
	<path fill="#84C558" d="M125.278,53.509c-1.807,0-3.499-0.945-3.499-3.582c0-2.563,1.649-3.813,3.655-3.813
		c0.516,0,1.051,0.073,1.472,0.199v0.977c-0.482-0.199-0.967-0.273-1.472-0.273c-1.459,0-2.627,0.727-2.627,2.858
		c0,2.09,1.168,2.763,2.471,2.763c0.566,0,0.746-0.211,0.746-0.399v-2.374h0.987c-0.031,0.609-0.043,2.143-0.043,3.341
		C126.454,53.392,125.888,53.509,125.278,53.509z"/>
	<path fill="#84C558" d="M128.774,53.351V46.27h3.876v0.853c-0.641-0.054-1.46-0.054-2.752-0.054c-0.095,0-0.147,0.054-0.157,0.18
		c-0.012,0.388-0.021,1.114-0.021,1.942h2.605v0.83h-2.605V52.3c0,0.126,0.074,0.22,0.199,0.22c1.324,0,2.187-0.009,2.816-0.029
		v0.86H128.774z"/>
</g>
<path fill="#249C55" d="M181.372,20.743h4.42c0.516,3.548,2.41,8.622,3.944,12.792c0.18,0.465,0.566,1.497,0.773,1.497
	c0.208,0,0.562-1.032,0.781-1.59l4.451-12.699h3.82c-2.91,6.824-6.086,15.534-7.932,21.329c0,0-1.165,3.474-1.815,5.643
	c-0.654,2.182-0.862,3.574-0.862,3.574h-4.278c0.904-2.522,2.105-5.836,3.78-10.895L181.372,20.743z M176.231,10.101v4.067
	c0,0.019,0,0.036,0,0.057v25.791h3.387V24.688c0-6.092,0.262-9.005,0.307-14.286C178.613,10.401,177.077,10.218,176.231,10.101z
	 M167.774,18.002c0-3.266,1.598-4.803,5.416-4.803c0.553,0,1.344,0.046,1.344,0.151V10.05c0-0.019-0.581-0.034-0.936-0.034
	c-6.136,0-9.221,2.49-9.221,8.33v2.201h-2.525v3.386h2.525v16.083h3.396V23.933h5.919v-3.386h-5.919V18.002z M46.892,11.699
	c2.91,0,5.488-0.305,7.791-0.305c8.137,0,14.303,4.154,14.303,14.777c0,10.833-6.56,14.984-14.434,14.984
	c-2.744,0-4.583-0.605-7.66-0.605V11.699z M54.599,37.813c6.46,0,10.23-3.213,10.23-11.433c0-8.09-3.938-11.605-10.187-11.605
	c-2.876,0-3.817,0.387-3.817,1.204c0,1.838-0.078,4.791-0.078,8.691V36.62C50.747,37.47,53.095,37.813,54.599,37.813z
	 M99.835,27.626v-1.027c0-2.146-1.334-3.303-3.824-3.303c-1.954,0-3.891,0.434-5.812,1.331v-3.386c1.964-0.73,3.897-1.11,6.159-1.11
	c4.41,0,7.106,1.8,7.106,6.338c0,3.426-0.13,6.506-0.13,9.72c0,1.707,0.083,3.13,0.18,4.24c-3.133,0-5.101,0.561-7.671,0.561
	c-4.663,0-7.06-2.41-7.06-6.04C88.784,31.006,92.037,27.796,99.835,27.626z M99.835,30.449c-4.973,0.088-7.113,1.457-7.113,4.244
	c0,1.798,1.283,3.202,3.554,3.202c2.226,0,3.165-0.548,3.334-1.449C99.788,35.631,99.835,33.365,99.835,30.449z M109.566,40.551
	h-3.632V21.286c3.632,0,5.74-1.373,8.823-1.373c0.644,0,1.329,0.047,2.009,0.176v3.771c-0.9-0.344-2.051-0.522-3.082-0.522
	c-2.141,0-3.983,0.819-4.028,2.491C109.623,29.512,109.566,35.292,109.566,40.551z M143.913,40.551h-3.635v-12.84
	c0-3.17-1.244-4.324-3.685-4.324c-1.8,0-3.847,0.814-3.847,2.014c0.082,0.429,0.156,1.153,0.156,1.881v13.27h-3.633v-12.84
	c0-3.258-1.321-4.324-3.477-4.324c-1.871,0-3.887,0.687-3.887,2.354v14.81h-3.643V21.204c3.939,0,5.229-1.032,8.174-1.032
	c2.627,0,3.857,0.822,4.852,1.759c1.539-1.03,3.418-1.759,6.117-1.759c3.852,0,6.506,1.798,6.506,6.891V40.551z M156.847,27.626
	v-1.027c0-2.146-1.32-3.303-3.804-3.303c-1.972,0-3.901,0.434-5.815,1.331v-3.386c1.96-0.73,3.89-1.11,6.156-1.11
	c4.411,0,7.108,1.8,7.108,6.338c0,3.426-0.135,6.506-0.135,9.72c0,1.707,0.095,3.13,0.173,4.24c-3.121,0-5.09,0.561-7.663,0.561
	c-4.671,0-7.064-2.41-7.064-6.04C145.803,31.006,149.06,27.796,156.847,27.626z M156.847,30.449
	c-4.959,0.088-7.104,1.457-7.104,4.244c0,1.798,1.287,3.202,3.551,3.202c2.232,0,3.168-0.548,3.336-1.449
	C156.81,35.631,156.847,33.365,156.847,30.449z M75.028,8.829c-1.309,0-2.432-0.157-4.027-0.27l0.045,0.046
	c0,0,0.23,1.657,0.23,4.425c0,1.865,0,27.825,0,27.825h3.391v-15.24c0-1.291,1.709-2.143,4.1-2.143c3.126,0,4.355,1.496,4.355,5.049
	v12.334h3.384V27.062c0-5.093-3.121-6.848-6.801-6.848c-2.108,0-3.772,0.603-4.888,1.201c0-4.108,0.127-8.406,0.174-12.561"/>
<path fill="#84C558" d="M6.354,7.398c4.576,0,8.613-0.471,12.248-0.471c12.783,0,22.461,6.524,22.43,23.213
	c-0.033,17.022-10.34,23.551-22.723,23.551c-4.031,0-6.823-0.827-11.141-0.932c-0.293-0.008-0.217-0.447-0.523-0.447l-0.374-1.156
	L6.354,7.398z"/>
<g>
	<g>
		<path fill="#FFFFFF" d="M19.499,43.672c0.732-0.206,1.493,0.221,1.701,0.953c0.207,0.731-0.22,1.493-0.953,1.701
			c-0.731,0.207-1.496-0.221-1.701-0.954C18.339,44.641,18.766,43.879,19.499,43.672 M19.142,42.409
			c-1.428,0.402-2.262,1.894-1.859,3.321c0.403,1.427,1.893,2.262,3.322,1.857c1.426-0.403,2.262-1.891,1.857-3.318
			C22.06,42.84,20.571,42.007,19.142,42.409L19.142,42.409z"/>
	</g>
	<g>
		<path fill="#FFFFFF" d="M29.269,30.52c0.715-0.258,1.506,0.111,1.764,0.828c0.26,0.716-0.111,1.506-0.827,1.765
			S28.698,33,28.439,32.285C28.181,31.569,28.55,30.777,29.269,30.52 M28.823,29.284c-1.396,0.506-2.122,2.052-1.617,3.446
			c0.503,1.396,2.049,2.12,3.445,1.616c1.395-0.503,2.121-2.049,1.615-3.445C31.764,29.507,30.217,28.78,28.823,29.284
			L28.823,29.284z"/>
	</g>
	<g>
		<path fill="#FFFFFF" d="M27.572,17.855c0.632-0.42,1.487-0.248,1.907,0.386c0.423,0.636,0.251,1.49-0.383,1.91
			c-0.634,0.424-1.49,0.251-1.913-0.384C26.765,19.133,26.936,18.278,27.572,17.855 M26.844,16.764
			c-1.235,0.82-1.572,2.495-0.753,3.731c0.822,1.235,2.496,1.572,3.731,0.752c1.236-0.821,1.573-2.494,0.753-3.73
			C29.753,16.279,28.079,15.941,26.844,16.764L26.844,16.764z"/>
	</g>
	<path fill="none" stroke="#FFFFFF" stroke-width="1.5019" stroke-miterlimit="10" d="M27.413,20.793
		c-1.459,1.785-2.127,2.707-5.498,4.411l-0.775,0.409c-6.973,3.526-11.681,9.745-13.494,16.75c-0.908,3.508-1.09,7.212-0.471,10.872
		"/>
	<path fill="none" stroke="#FFFFFF" stroke-width="1.5019" stroke-miterlimit="10" d="M28.747,33.498
		c-1.67,2.765-4.268,4.997-7.545,6.181l-7.576,2.824c-2.81,1.014-5.117,2.799-6.773,5.026"/>
	<path fill="none" stroke="#FFFFFF" stroke-width="1.2516" stroke-miterlimit="10" d="M17.092,34.258
		c-0.621,1.484-1.731,2.775-3.256,3.604l-3.118,1.695c-1.332,0.723-2.348,1.798-2.996,3.049"/>
	<g>
		<path fill="#FFFFFF" d="M16.901,31.753c-0.781,0.425-1.073,1.407-0.648,2.189c0.426,0.783,1.408,1.074,2.189,0.647
			c0.781-0.424,1.072-1.406,0.648-2.189C18.664,31.618,17.682,31.328,16.901,31.753L16.901,31.753z"/>
	</g>
	<path fill="none" stroke="#FFFFFF" stroke-width="1.5019" stroke-miterlimit="10" d="M18.79,46.653
		c-0.82,1.056-1.971,1.868-3.357,2.258l-4.893,1.341c-1.334,0.379-2.453,1.147-3.264,2.146"/>
</g>
</svg>
