<svg width="48" height="48" xmlns="http://www.w3.org/2000/svg">
    <title>
        L4RP: Lab for the Recently Possible
    </title>
    <rect height="48" width="48" fill="#008F4C"/>
    <path d="m28.58 20.121h2.403v-3.955h-9.583l11.544-15.146v13.17h3.065v1.977h-3.065v3.955h2.624v1.878h-6.988v-1.879zm2.403-13.235l-5.565 7.304h5.565v-7.304z" fill="#fff"/>
    <polygon points="10.25,21.314 12.007,21.314 12.007,4.772 10.25,4.772 10.25,3 16.114,3 16.114,4.772 13.763,4.772 13.763,21.314 22.718,21.314 22.718,18.601 24.389,18.601 24.389,23 10.25,23" fill="#fff"/>
    <path d="m10.4 43.314h1.501v-16.543h-1.501v-1.771h5.949c.622 0 1.303.1 2.04.301.735.2 1.431.514 2.082.94.651.431 1.194.977 1.628 1.645.436.668.651 1.477.651 2.428 0 1.41-.358 2.581-1.076 3.515-.716.934-1.757 1.553-3.115 1.856l3.54 7.63h2.58v1.685h-3.685l-4.307-9.199c-.207.019-.416.027-.622.027h-2.409v7.486h3.031v1.686h-6.287v-1.686zm3.257-9.257h2.692c.905 0 1.661-.116 2.265-.352.606-.234 1.083-.533 1.433-.899.349-.366.594-.77.736-1.209.143-.442.212-.867.212-1.281 0-.468-.117-.92-.354-1.352-.235-.431-.555-.806-.963-1.124-.405-.317-.893-.576-1.459-.772-.566-.197-1.182-.296-1.842-.296h-2.72v7.285z" fill="#fff"/>
    <path d="m26.5 43.314h1.503v-16.543h-1.503v-1.771h5.95c.624 0 1.303.1 2.04.301.736.2 1.431.514 2.082.94.653.431 1.196.977 1.631 1.645s.65 1.477.65 2.428c0 1.678-.51 3.015-1.529 4.017-1.02.999-2.504 1.498-4.449 1.498h-3.116v7.486h3.032v1.685h-6.291v-1.686zm3.259-9.257h2.691c.906 0 1.662-.116 2.267-.352.604-.234 1.082-.533 1.43-.899.352-.366.597-.77.738-1.209.142-.442.213-.867.213-1.281 0-.468-.12-.92-.354-1.352-.237-.431-.558-.806-.962-1.124-.407-.317-.894-.576-1.46-.772-.568-.197-1.182-.296-1.843-.296h-2.72v7.285z" fill="#fff"/>
</svg>
