<svg xmlns="http://www.w3.org/2000/svg" width="208.455" height="483.81" viewBox="267.5 255.5 208.45538 483.80997" enable-background="new 267.5 255.5 230 505">
    <style>
        path { fill: none; stroke: #fff; } g path, circle { fill: #fff; stroke: none; }
    </style>
    <g>
        <path d="m408.845 540.479h.06c4.64.031 8.373 3.818 8.341 8.46-.032 4.618-3.788 8.34-8.399 8.34h-.06c-4.64-.033-8.372-3.82-8.341-8.459.033-4.62 3.788-8.341 8.399-8.341m0-8c-8.979 0-16.335 7.306-16.399 16.283-.062 9.043 7.241 16.45 16.282 16.517h.117c8.98 0 16.337-7.305 16.399-16.284.03-4.38-1.646-8.511-4.722-11.63-3.075-3.12-7.183-4.854-11.562-4.886h-.115z" fill="#fff"/>
        <path d="m333.632 396.716h.062c4.64.032 8.373 3.819 8.342 8.458-.033 4.621-3.788 8.342-8.399 8.342h-.06c-4.641-.033-8.373-3.819-8.341-8.46.032-4.619 3.785-8.34 8.396-8.34m0-8c-8.979 0-16.334 7.306-16.396 16.284-.063 9.041 7.24 16.451 16.283 16.517h.117c8.979 0 16.335-7.306 16.399-16.285.029-4.382-1.647-8.512-4.724-11.631-3.077-3.119-7.182-4.854-11.562-4.884h-.117v-.001z" fill="#fff"/>
        <path d="m283.897 263.5h.062c4.64.032 8.372 3.82 8.339 8.458-.032 4.621-3.785 8.342-8.397 8.342h-.06c-4.64-.033-8.373-3.819-8.341-8.46.032-4.618 3.785-8.34 8.397-8.34m0-8c-8.978 0-16.333 7.305-16.397 16.283-.062 9.043 7.242 16.452 16.284 16.517h.117c8.979 0 16.334-7.306 16.397-16.286.031-4.378-1.646-8.508-4.72-11.628-3.076-3.12-7.183-4.855-11.563-4.886h-.118z" fill="#fff"/>
        <path d="m330.866 500.782h.03c2.319.017 4.188 1.91 4.17 4.229-.017 2.311-1.894 4.171-4.198 4.171h-.031c-2.319-.017-4.188-1.909-4.17-4.229.017-2.31 1.894-4.171 4.199-4.171m0-4c-4.489 0-8.167 3.652-8.199 8.142-.017 2.19.823 4.257 2.36 5.815 1.538 1.561 3.592 2.428 5.782 2.442h.057999999999999996c4.488 0 8.167-3.652 8.198-8.143.032-4.521-3.62-8.226-8.141-8.258h-.015l-.043.002z" fill="#fff"/>
    </g>
    <path stroke-miterlimit="10" d="m287.529 283.104c11.765 38.933 15.739 80.924 10.326 123.917l-1.939 15.422c-11.191 88.9 17.75 173.521 72.717 235.684 27.513 31.112 61.542 56.601 100.323 74.186" stroke="#fff" stroke-width="8" fill="none"/>
    <path stroke-miterlimit="10" d="m416.69 558.035c9.259 12.71 14.671 28.396 14.553 45.344l-.463 65.39c-.158 22.76 9.655 43.239 25.36 57.298" stroke="#fff" stroke-width="8" fill="none"/>
    <path stroke-miterlimit="10" d="m341.166 414.317c23.722 29.741 37.782 67.512 37.492 108.56l-.532 75.549c-.252 35.68 10.337 68.884 28.688 96.488" stroke="#fff" stroke-width="8" fill="none"/>
    <path stroke-miterlimit="10" d="m334.795 509.788c11.763 14.838 18.729 33.646 18.584 54.075l-.287 40.772c-.126 17.841 5.168 34.441 14.344 48.244" stroke="#fff" stroke-width="4" fill="none"/>
    <circle cx="481.154" cy="746.819" r="7" transform="translate(-12.199 -14.509)" fill="#fff"/>
</svg>
