<?xml version="1.0" encoding="utf-8"?>
<!DOCTYPE svg PUBLIC "-//W3C//DTD SVG 1.1//EN" "http://www.w3.org/Graphics/SVG/1.1/DTD/svg11.dtd">
<svg version="1.1" id="Layer_1" xmlns="http://www.w3.org/2000/svg" xmlns:xlink="http://www.w3.org/1999/xlink" x="0px" y="0px"
	 width="230px" height="505px" viewBox="267.5 255.5 230 505" enable-background="new 267.5 255.5 230 505" xml:space="preserve">
 <style>
 	path {
 		fill: none;
 		stroke: #fff;
 	}
 	g path, circle {
 		fill: #fff;
 		stroke: none;
 	}
 </style>
<g>
	<path d="M421.044,554.988c0.021,0,0.039,0,0.06,0c4.64,0.031,8.373,3.818,8.341,8.46c-0.032,4.618-3.788,8.34-8.399,8.34
		c-0.021,0-0.039,0-0.06,0c-4.64-0.033-8.372-3.82-8.341-8.459C412.678,558.709,416.433,554.988,421.044,554.988 M421.044,546.988
		L421.044,546.988c-8.979,0-16.335,7.306-16.399,16.283c-0.062,9.043,7.241,16.45,16.282,16.517h0.117
		c8.98,0,16.337-7.305,16.399-16.284c0.03-4.38-1.646-8.511-4.722-11.63c-3.075-3.12-7.183-4.854-11.562-4.886H421.044
		L421.044,546.988z"/>
</g>
<g>
	<path d="M345.831,411.225c0.021,0,0.041,0,0.062,0c4.64,0.032,8.373,3.819,8.342,8.458c-0.033,4.621-3.788,8.342-8.399,8.342
		c-0.02,0-0.04,0-0.06,0c-4.641-0.033-8.373-3.819-8.341-8.46C337.467,414.946,341.22,411.225,345.831,411.225 M345.831,403.225
		L345.831,403.225c-8.979,0-16.334,7.306-16.396,16.284c-0.063,9.041,7.24,16.451,16.283,16.517h0.117
		c8.979,0,16.335-7.306,16.399-16.285c0.029-4.382-1.647-8.512-4.724-11.631s-7.182-4.854-11.562-4.884H345.831L345.831,403.225z"/>
</g>
<g>
	<path d="M296.096,278.009c0.021,0,0.041,0,0.062,0c4.64,0.032,8.372,3.82,8.339,8.458c-0.032,4.621-3.785,8.342-8.397,8.342
		c-0.02,0-0.04,0-0.06,0c-4.64-0.033-8.373-3.819-8.341-8.46C287.731,281.731,291.484,278.009,296.096,278.009 M296.096,270.009
		L296.096,270.009c-8.978,0-16.333,7.305-16.397,16.283c-0.062,9.043,7.242,16.452,16.284,16.517h0.117
		c8.979,0,16.334-7.306,16.397-16.286c0.031-4.378-1.646-8.508-4.72-11.628c-3.076-3.12-7.183-4.855-11.563-4.886H296.096
		L296.096,270.009z"/>
</g>
<path stroke-width="8" stroke-miterlimit="10" d="M299.728,297.613
	c11.765,38.933,15.739,80.924,10.326,123.917l-1.939,15.422c-11.191,88.9,17.75,173.521,72.717,235.684
	c27.513,31.112,61.542,56.601,100.323,74.186"/>
<path stroke-width="8" stroke-miterlimit="10" d="M428.889,572.544
	c9.259,12.71,14.671,28.396,14.553,45.344l-0.463,65.39c-0.158,22.76,9.655,43.239,25.36,57.298"/>
<path stroke-width="8" stroke-miterlimit="10" d="M353.365,428.826
	c23.722,29.741,37.782,67.512,37.492,108.56l-0.532,75.549c-0.252,35.68,10.337,68.884,28.688,96.488"/>
<circle cx="481.154" cy="746.819" r="7"/>
<path stroke-width="4" stroke-miterlimit="10" d="M346.994,524.297
	c11.763,14.838,18.729,33.646,18.584,54.075l-0.287,40.772c-0.126,17.841,5.168,34.441,14.344,48.244"/>
<g>
	<path d="M343.065,515.291c0.01,0,0.021,0,0.03,0c2.319,0.017,4.188,1.91,4.17,4.229c-0.017,2.311-1.894,4.171-4.198,4.171
		c-0.011,0-0.021,0-0.031,0c-2.319-0.017-4.188-1.909-4.17-4.229C338.883,517.152,340.76,515.291,343.065,515.291 M343.065,511.291
		L343.065,511.291c-4.489,0-8.167,3.652-8.199,8.142c-0.017,2.19,0.823,4.257,2.36,5.815c1.538,1.561,3.592,2.428,5.782,2.442h0.014
		h0.044c4.488,0,8.167-3.652,8.198-8.143c0.032-4.521-3.62-8.226-8.141-8.258h-0.015L343.065,511.291L343.065,511.291z"/>
</g>
</svg>
